<?xml version="1.0" standalone="no"?>
<!DOCTYPE svg PUBLIC "-//W3C//DTD SVG 20010904//EN"
 "http://www.w3.org/TR/2001/REC-SVG-20010904/DTD/svg10.dtd">
<svg version="1.0" xmlns="http://www.w3.org/2000/svg"
 width="512.000000pt" height="512.000000pt" viewBox="0 0 512.000000 512.000000"
 preserveAspectRatio="xMidYMid meet">
<metadata>
Created by potrace 1.14, written by Peter Selinger 2001-2017
</metadata>
<g transform="translate(0.000000,512.000000) scale(0.100000,-0.100000)"
fill="#000000" stroke="none">
<path d="M1094 4909 c-16 -15 -41 -23 -95 -29 -144 -16 -265 -84 -344 -191
-56 -76 -84 -153 -95 -256 -10 -94 -29 -135 -80 -166 -31 -19 -52 -22 -171
-25 l-137 -4 -6 -36 c-18 -111 -33 -81 313 -601 l319 -478 -320 -320 -321
-321 22 -193 c11 -107 57 -556 101 -999 44 -443 85 -825 91 -850 28 -117 135
-251 241 -302 126 -62 -1 -58 2028 -58 2031 0 1906 -4 2030 58 107 53 221 202
244 317 3 17 42 392 86 835 44 443 90 892 101 998 l22 194 -164 164 c-90 90
-172 164 -181 164 -26 0 -22 -17 6 -24 34 -8 84 -69 92 -112 20 -107 -66 -194
-193 -194 -48 0 -48 1 -59 -147 l-6 -93 -565 0 c-629 0 -607 -2 -661 68 -21
28 -27 48 -30 103 l-4 69 -79 0 -79 0 0 141 c0 162 -13 200 -80 238 -37 21
-48 21 -480 21 -432 0 -443 0 -480 -21 -67 -38 -80 -76 -80 -238 l0 -141 -79
0 -79 0 -4 -69 c-3 -55 -9 -75 -30 -103 -54 -70 -32 -68 -661 -68 l-565 0 -6
92 c-4 51 -9 105 -12 121 -5 23 -2 27 18 27 21 1 20 2 -7 14 -94 41 -124 168
-58 247 38 44 80 59 170 59 74 1 76 2 48 14 -94 41 -124 168 -58 247 45 54 72
59 290 59 174 1 194 2 168 14 -94 41 -124 168 -58 247 38 44 80 59 170 59 74
1 76 2 48 14 -124 54 -123 240 2 292 46 20 400 20 446 0 125 -52 126 -238 2
-292 -28 -12 -26 -13 47 -14 42 0 89 -5 104 -10 25 -10 31 -7 63 29 45 51 73
61 169 61 73 1 75 2 47 14 -124 54 -123 240 2 292 46 20 400 20 446 0 125 -52
126 -238 2 -292 -26 -11 15 -13 288 -14 245 0 325 -3 350 -14 43 -17 85 -68
93 -111 8 -42 19 -44 47 -9 40 52 58 54 437 54 384 0 394 -1 443 -59 66 -79
36 -206 -58 -247 -27 -12 -22 -13 72 -14 l103 0 320 480 c342 513 328 487 314
593 l-6 45 -137 4 c-119 3 -140 6 -171 25 -51 31 -70 72 -80 166 -5 45 -16
102 -25 127 -65 181 -215 298 -413 320 -55 6 -80 14 -98 31 l-24 22 0 -26 0
-27 -640 0 -640 0 0 -400 0 -400 -240 0 -240 0 0 400 0 400 -639 0 -640 0 -3
25 -3 26 -21 -22z m276 -276 c-8 -3 -24 -10 -35 -15 -20 -9 -20 -9 -1 6 11 9
27 16 35 15 14 0 14 -1 1 -6z m100 -189 c0 -2 -9 0 -20 6 -11 6 -20 13 -20 16
0 2 9 0 20 -6 11 -6 20 -13 20 -16z m51 -31 c13 -16 12 -17 -3 -4 -17 13 -22
21 -14 21 2 0 10 -8 17 -17z m20 -46 c-10 -9 -11 -8 -5 6 3 10 9 15 12 12 3
-3 0 -11 -7 -18z m-64 -23 c-3 -3 -12 -4 -19 -1 -8 3 -5 6 6 6 11 1 17 -2 13
-5z m-94 -11 c-18 -2 -48 -2 -65 0 -18 2 -4 4 32 4 36 0 50 -2 33 -4z m-260
-10 c-40 -2 -106 -2 -145 0 -40 1 -8 3 72 3 80 0 112 -2 73 -3z m3050 0 c-7
-2 -21 -2 -30 0 -10 3 -4 5 12 5 17 0 24 -2 18 -5z m-1482 -1872 c28 -29 29
-32 29 -131 0 -99 -1 -102 -29 -131 -16 -16 -39 -29 -51 -29 -12 0 -35 13 -51
29 -28 29 -29 32 -29 131 0 99 1 102 29 131 16 16 39 29 51 29 12 0 35 -13 51
-29z m-2240 -160 c16 -16 29 -39 29 -51 0 -28 -52 -80 -80 -80 -28 0 -80 52
-80 80 0 28 52 80 80 80 12 0 35 -13 51 -29z m4480 0 c16 -16 29 -39 29 -51 0
-28 -52 -80 -80 -80 -28 0 -80 52 -80 80 0 28 52 80 80 80 12 0 35 -13 51 -29z
m-648 -618 c-7 -2 -19 -2 -25 0 -7 3 -2 5 12 5 14 0 19 -2 13 -5z m-156 -9
c-3 -3 -12 -4 -19 -1 -8 3 -5 6 6 6 11 1 17 -2 13 -5z m-110 -10 c-3 -3 -12
-4 -19 -1 -8 3 -5 6 6 6 11 1 17 -2 13 -5z m326 -381 c-7 -2 -19 -2 -25 0 -7
3 -2 5 12 5 14 0 19 -2 13 -5z m-80 -10 c-7 -2 -19 -2 -25 0 -7 3 -2 5 12 5
14 0 19 -2 13 -5z m-70 -10 c-7 -2 -19 -2 -25 0 -7 3 -2 5 12 5 14 0 19 -2 13
-5z m-56 -9 c-3 -3 -12 -4 -19 -1 -8 3 -5 6 6 6 11 1 17 -2 13 -5z m-90 -20
c-3 -3 -12 -4 -19 -1 -8 3 -5 6 6 6 11 1 17 -2 13 -5z m-397 -147 c0 -2 -10
-12 -22 -23 l-23 -19 19 23 c18 21 26 27 26 19z m-987 -24 c-7 -2 -19 -2 -25
0 -7 3 -2 5 12 5 14 0 19 -2 13 -5z m944 -45 c-3 -8 -6 -5 -6 6 -1 11 2 17 5
13 3 -3 4 -12 1 -19z m40 -87 c10 -6 13 -11 6 -11 -16 0 -53 49 -53 69 1 9 7
2 14 -15 8 -18 22 -37 33 -43z m56 -18 c-7 -2 -19 -2 -25 0 -7 3 -2 5 12 5 14
0 19 -2 13 -5z m145 -10 c-16 -2 -40 -2 -55 0 -16 2 -3 4 27 4 30 0 43 -2 28
-4z m360 -10 c-43 -2 -113 -2 -155 0 -43 1 -8 3 77 3 85 0 120 -2 78 -3z
m-3437 -432 c16 -16 29 -39 29 -51 0 -28 -52 -80 -80 -80 -28 0 -80 52 -80 80
0 28 52 80 80 80 12 0 35 -13 51 -29z m3840 0 c16 -16 29 -39 29 -51 0 -28
-52 -80 -80 -80 -28 0 -80 52 -80 80 0 28 52 80 80 80 12 0 35 -13 51 -29z"/>
<path d="M1068 2483 c6 -2 18 -2 25 0 6 3 1 5 -13 5 -14 0 -19 -2 -12 -5z"/>
</g>
</svg>
